{
    "asset" : {
        "generator" : "Khronos glTF Blender I/O v0.9.36",
        "version" : "2.0"
    },
    "scene" : 0,
    "scenes" : [
        {
            "name" : "Scene",
            "nodes" : [
                0
            ]
        }
    ],
    "nodes" : [
        {
            "mesh" : 0,
            "name" : "Cube"
        }
    ],
    "materials" : [
        {
            "doubleSided" : true,
            "name" : "asteroid2material",
            "pbrMetallicRoughness" : {
                "baseColorTexture" : {
                    "index" : 0,
                    "texCoord" : 0
                },
                "metallicFactor" : 0,
                "roughnessFactor" : 0.4000000059604645
            }
        }
    ],
    "meshes" : [
        {
            "name" : "Cube",
            "primitives" : [
                {
                    "attributes" : {
                        "POSITION" : 0,
                        "NORMAL" : 1,
                        "TEXCOORD_0" : 2
                    },
                    "indices" : 3,
                    "material" : 0
                }
            ]
        }
    ],
    "textures" : [
        {
            "source" : 0
        }
    ],
    "images" : [
        {
            "bufferView" : 4,
            "mimeType" : "image/png",
            "name" : "asteroid2"
        }
    ],
    "accessors" : [
        {
            "bufferView" : 0,
            "componentType" : 5126,
            "count" : 25,
            "max" : [
                1.6303117275238037,
                2.598048686981201,
                1.4142136573791504
            ],
            "min" : [
                -1.6303117275238037,
                -2.598048686981201,
                -1.4142136573791504
            ],
            "type" : "VEC3"
        },
        {
            "bufferView" : 1,
            "componentType" : 5126,
            "count" : 25,
            "type" : "VEC3"
        },
        {
            "bufferView" : 2,
            "componentType" : 5126,
            "count" : 25,
            "type" : "VEC2"
        },
        {
            "bufferView" : 3,
            "componentType" : 5123,
            "count" : 39,
            "type" : "SCALAR"
        }
    ],
    "bufferViews" : [
        {
            "buffer" : 0,
            "byteLength" : 300,
            "byteOffset" : 0
        },
        {
            "buffer" : 0,
            "byteLength" : 300,
            "byteOffset" : 300
        },
        {
            "buffer" : 0,
            "byteLength" : 200,
            "byteOffset" : 600
        },
        {
            "buffer" : 0,
            "byteLength" : 78,
            "byteOffset" : 800
        },
        {
            "buffer" : 0,
            "byteLength" : 1886,
            "byteOffset" : 880
        }
    ],
    "buffers" : [
        {
            "byteLength" : 2768,
            "uri" : "data:application/octet-stream;base64,"
        }
    ]
}
