{
    "asset" : {
        "generator" : "Khronos glTF Blender I/O v0.9.36",
        "version" : "2.0"
    },
    "scene" : 0,
    "scenes" : [
        {
            "name" : "Scene",
            "nodes" : [
                0,
                1,
                2
            ]
        }
    ],
    "nodes" : [
        {
            "name" : "Light",
            "rotation" : [
                0.16907575726509094,
                0.7558803558349609,
                -0.27217137813568115,
                0.570947527885437
            ],
            "translation" : [
                4.076245307922363,
                5.903861999511719,
                -0.8054539561271667
            ]
        },
        {
            "name" : "Camera",
            "rotation" : [
                0.483536034822464,
                0.33687159419059753,
                -0.20870360732078552,
                0.7804827094078064
            ],
            "translation" : [
                7.358891487121582,
                4.958309173583984,
                6.925790786743164
            ]
        },
        {
            "mesh" : 0,
            "name" : "MeshInstance"
        }
    ],
    "materials" : [
        {
            "doubleSided" : true,
            "name" : "raft1material",
            "pbrMetallicRoughness" : {
                "baseColorTexture" : {
                    "index" : 0,
                    "texCoord" : 0
                },
                "metallicFactor" : 0,
                "roughnessFactor" : 0.5
            }
        }
    ],
    "meshes" : [
        {
            "name" : "Cylinder.004",
            "primitives" : [
                {
                    "attributes" : {
                        "POSITION" : 0,
                        "NORMAL" : 1,
                        "TEXCOORD_0" : 2
                    },
                    "indices" : 3,
                    "material" : 0
                }
            ]
        }
    ],
    "textures" : [
        {
            "source" : 0
        }
    ],
    "images" : [
        {
            "bufferView" : 4,
            "mimeType" : "image/png",
            "name" : "raft1"
        }
    ],
    "accessors" : [
        {
            "bufferView" : 0,
            "componentType" : 5126,
            "count" : 442,
            "max" : [
                1.1997348070144653,
                3.0132179260253906,
                1.4971665143966675
            ],
            "min" : [
                -1.2002655267715454,
                -0.16201132535934448,
                -1.5028339624404907
            ],
            "type" : "VEC3"
        },
        {
            "bufferView" : 1,
            "componentType" : 5126,
            "count" : 442,
            "type" : "VEC3"
        },
        {
            "bufferView" : 2,
            "componentType" : 5126,
            "count" : 442,
            "type" : "VEC2"
        },
        {
            "bufferView" : 3,
            "componentType" : 5123,
            "count" : 708,
            "type" : "SCALAR"
        }
    ],
    "bufferViews" : [
        {
            "buffer" : 0,
            "byteLength" : 5304,
            "byteOffset" : 0
        },
        {
            "buffer" : 0,
            "byteLength" : 5304,
            "byteOffset" : 5304
        },
        {
            "buffer" : 0,
            "byteLength" : 3536,
            "byteOffset" : 10608
        },
        {
            "buffer" : 0,
            "byteLength" : 1416,
            "byteOffset" : 14144
        },
        {
            "buffer" : 0,
            "byteLength" : 4665,
            "byteOffset" : 15560
        }
    ],
    "buffers" : [
        {
            "byteLength" : 20228,
            "uri" : "data:application/octet-stream;base64,"
        }
    ]
}
